<svg id="Layer_1" data-name="Layer 1" xmlns="http://www.w3.org/2000/svg" viewBox="0 0 250 250"><defs><style>.cls-1,.cls-7{fill:#447dfd;}.cls-10,.cls-12,.cls-13,.cls-2,.cls-4,.cls-6{fill:#fff;}.cls-2{opacity:0.7;}.cls-13,.cls-15,.cls-2,.cls-6,.cls-9{isolation:isolate;}.cls-11,.cls-14,.cls-15,.cls-16,.cls-17,.cls-18,.cls-3,.cls-8{fill:none;}.cls-11,.cls-14,.cls-16,.cls-17,.cls-3,.cls-4,.cls-7,.cls-8{stroke:#263238;}.cls-11,.cls-14,.cls-15,.cls-16,.cls-17,.cls-18,.cls-3,.cls-4{stroke-linecap:round;stroke-linejoin:round;}.cls-10,.cls-11,.cls-15,.cls-18,.cls-3,.cls-4,.cls-7,.cls-8{stroke-width:0.6px;}.cls-3{stroke-dasharray:2.38;}.cls-5{fill:#263238;}.cls-15,.cls-6,.cls-9{opacity:0.2;}.cls-10,.cls-7,.cls-8{stroke-miterlimit:10;}.cls-10{stroke:#222221;}.cls-13{opacity:0.5;}.cls-14{stroke-width:1.19px;}.cls-15,.cls-18{stroke:#fff;}.cls-16{stroke-width:0.6px;}.cls-17{stroke-width:0.6px;}</style></defs><g id="freepik--background-simple--inject-11"><path class="cls-1" d="M235.14,101.4c-26.33-45.09-97.74-29-112.33-51-7.47-11.21-15.82-24.25-27.94-31a66.31,66.31,0,0,0-36.63-7.91C16.54,14.58-1.14,51.89,6.87,92.86,17.56,147.52,66,203.36,123.57,203.74c30.11.23,58.88-10.57,81.4-25.77l.5-.34C228,162.3,255.24,135.83,235.14,101.4Z"/><path class="cls-2" d="M235.14,101.4c-26.33-45.09-97.74-29-112.33-51-7.47-11.21-15.82-24.25-27.94-31a66.31,66.31,0,0,0-36.63-7.91C16.54,14.58-1.14,51.89,6.87,92.86,17.56,147.52,66,203.36,123.57,203.74c30.11.23,58.88-10.57,81.4-25.77l.5-.34C228,162.3,255.24,135.83,235.14,101.4Z"/></g><g id="freepik--Lines--inject-11"><path class="cls-3" d="M30.77,104.68H27.84A11.85,11.85,0,0,0,16,116.53v65a11.84,11.84,0,0,0,11.84,11.84H68a11.84,11.84,0,0,0,11.84-11.84h0"/><path class="cls-3" d="M76.58,43.35V30.51a7.25,7.25,0,0,1,7.24-7.25h52.23a7.25,7.25,0,0,1,7.25,7.25h0"/></g><g id="freepik--Window--inject-11"><path class="cls-4" d="M221.09,60.57v97.26a12,12,0,0,1-12,12H38a12,12,0,0,1-12-12V60.57a6,6,0,0,1,0-.84A12,12,0,0,1,38,48.58H209.1a12,12,0,0,1,12,11.17A7.27,7.27,0,0,1,221.09,60.57Z"/><path class="cls-5" d="M31.89,64.23h184v89.84a11.23,11.23,0,0,1-11.24,11.23H43.13a11.23,11.23,0,0,1-11.24-11.23V64.23Z"/><path class="cls-6" d="M215.87,64.23v89.84a11.17,11.17,0,0,1-11.11,11.23H43a11.16,11.16,0,0,1-11.11-11.23V64.23Z"/><path class="cls-7" d="M221.05,59.75h-195A12,12,0,0,1,38,48.61H209.1A12,12,0,0,1,221.05,59.75Z"/><path class="cls-5" d="M50.05,54.16A2.13,2.13,0,1,1,47.92,52a2.12,2.12,0,0,1,2.13,2.13Z"/><path class="cls-5" d="M59,54.16A2.12,2.12,0,1,1,56.9,52,2.12,2.12,0,0,1,59,54.16Z"/><circle class="cls-5" cx="65.88" cy="54.16" r="2.12"/><path class="cls-8" d="M215.87,64.23v89.84a11.23,11.23,0,0,1-11.24,11.23H43.13a11.23,11.23,0,0,1-11-9.05v0a11.22,11.22,0,0,1-.21-2.16V64.23Z"/><path class="cls-5" d="M215.69,78.12a11.28,11.28,0,0,0-2.49-1l-1-4.51H207.9l-1,4.51a10.78,10.78,0,0,0-2.51,1l-3.87-2.48-3,3,2.44,3.87a10.81,10.81,0,0,0-1,2.51l-4.51,1v4.29l4.51,1a11,11,0,0,0,1,2.51l-2.48,3.9,3,3,3.9-2.48a10.56,10.56,0,0,0,2.5,1l1,4.51h4.27l1-4.51a10.67,10.67,0,0,0,2.49-1l.2.13V78Zm-5.64,15.66a5.54,5.54,0,1,1,5.55-5.54h0a5.54,5.54,0,0,1-5.54,5.53Z"/><path class="cls-5" d="M138.4,82.47v-9l-9.51-2.11A24.45,24.45,0,0,0,126.73,66l1.15-1.81H83L84.1,66a23.28,23.28,0,0,0-2.16,5.27l-9.51,2.12v9.06l9.51,2.12a23.66,23.66,0,0,0,2.16,5.32l-5.22,8.21,6.4,6.4,8.21-5.23a24.12,24.12,0,0,0,5.28,2.19l2.12,9.48h9l2.12-9.5a24.26,24.26,0,0,0,5.26-2.19l8.22,5.23,6.4-6.4-5.2-8.21a25.21,25.21,0,0,0,2.17-5.27Zm-32.95,7.16A11.69,11.69,0,1,1,117.13,78a11.68,11.68,0,0,1-11.68,11.68Z"/><path class="cls-5" d="M78.4,144.56l.39-7.18-7.44-2.1A21.09,21.09,0,0,0,69.83,131l4.49-6.3-4.82-5.35-6.73,3.78a20.33,20.33,0,0,0-4.1-2l-1.28-7.62-7.18-.33-2.07,7.46a19,19,0,0,0-4.27,1.51l-6.3-4.49-5.35,4.81L36,129.26a18.8,18.8,0,0,0-2,4.09l-2.16.36v9.72l1.58.45A18.55,18.55,0,0,0,35,148.15l-3.1,4.35.2,3.72v0l3.21,3.55L42,156a18.32,18.32,0,0,0,4.11,2l1.26,7.33h0l.06.31,7.17.37.19-.68h0l1.89-6.77A19.37,19.37,0,0,0,61,157l6.29,4.48,5.35-4.81L68.87,150a18.21,18.21,0,0,0,1.93-4.09ZM59.35,133.35a9.29,9.29,0,1,0-.69,13.12h0a9.28,9.28,0,0,0,.69-13.09Z"/><path class="cls-5" d="M135.78,133.86a15.09,15.09,0,0,0,.44-3.4l5.15-2.7L140,122.52l-5.82.27a15.59,15.59,0,0,0-2.09-2.7l1.72-5.57-4.7-2.7-3.93,4.29a15.51,15.51,0,0,0-3.39-.43l-2.7-5.16-5.23,1.42.28,5.83a14.44,14.44,0,0,0-2.7,2.09l-5.58-1.72-2.7,4.69,4.32,3.93a14.31,14.31,0,0,0-.43,3.39l-5.16,2.7,1.42,5.22,5.84-.27a13.55,13.55,0,0,0,2.07,2.7L109.44,146l4.71,2.7,3.91-4.25a13.87,13.87,0,0,0,3.39.42l2.7,5.17,5.23-1.42-.23-5,0-.86a13.9,13.9,0,0,0,2.74-2.09l5.56,1.73,2.31-4,.38-.68ZM123.43,137a7,7,0,1,1,4.9-8.63v0a7,7,0,0,1-4.91,8.59Z"/><path class="cls-5" d="M195.58,143.06l1.19-7.18L189.5,133a18.7,18.7,0,0,0-1-4.48l5.23-5.83-4.23-5.94-7.22,3.06a19.38,19.38,0,0,0-3.9-2.42l-.42-7.82-7.18-1.19-3,7.24a20.1,20.1,0,0,0-4.46,1.05l-5.85-5.23-5.91,4.23,3.06,7.21a19.85,19.85,0,0,0-2.18,3.4c-.08.17-.17.33-.25.5l-7.82.43-1.19,7.18,1.18.47,6.09,2.46a19.54,19.54,0,0,0,1,4.46l-5.24,5.87,4.24,5.94,7.21-3.08a18.7,18.7,0,0,0,3.89,2.44l.41,7.79,7.18,1.19,2.93-7.19a18.7,18.7,0,0,0,4.48-1l5.83,5.23,5.94-4.24-3.07-7.22a18.26,18.26,0,0,0,2.46-3.91Zm-20.14-.32a9.41,9.41,0,1,1,2.15-13.13h0a9.4,9.4,0,0,1-2.18,13.12Z"/></g><g id="freepik--Graphics--inject-11"><rect class="cls-7" x="34.66" y="89.88" width="70.65" height="92.37" rx="7.08"/><rect class="cls-9" x="34.66" y="89.88" width="70.65" height="92.37" rx="7.08"/><path class="cls-4" d="M111.88,103.94v78.2a7.07,7.07,0,0,1-7.07,7.09H48.31a7.07,7.07,0,0,1-7.07-7.09h0v-78.2a7.07,7.07,0,0,1,7.07-7.08H104.8a7.08,7.08,0,0,1,7.08,7.08Z"/><path class="cls-7" d="M111.88,103.94v4.18H41.24v-4.18a7.07,7.07,0,0,1,7.07-7.08H104.8a7.08,7.08,0,0,1,7.08,7.08Z"/><rect class="cls-1" x="47.88" y="112.97" width="17.38" height="2.92"/><rect class="cls-1" x="47.88" y="139.11" width="17.38" height="2.92"/><rect class="cls-1" x="47.88" y="162.81" width="17.38" height="2.92"/><rect class="cls-5" x="47.88" y="120.2" width="49.36" height="2.14"/><rect class="cls-5" x="47.88" y="124.28" width="40.46" height="2.08"/><rect class="cls-5" x="47.88" y="128.31" width="45.76" height="2.08"/><rect class="cls-5" x="47.88" y="132.33" width="45.76" height="2.08"/><rect class="cls-5" x="47.88" y="143.9" width="49.36" height="2.14"/><rect class="cls-5" x="47.88" y="147.99" width="40.46" height="2.08"/><rect class="cls-5" x="47.88" y="152.01" width="45.76" height="2.08"/><rect class="cls-5" x="47.88" y="169.92" width="49.36" height="2.14"/><rect class="cls-5" x="47.88" y="174.02" width="40.46" height="2.08"/><rect class="cls-5" x="47.88" y="178.04" width="45.76" height="2.08"/><path class="cls-10" d="M191.5,42.63v31.6a8.44,8.44,0,0,1-8.44,8.45h-72.8a8.44,8.44,0,0,1-8.45-8.44h0V42.63a8.45,8.45,0,0,1,8.45-8.45h72.8A8.44,8.44,0,0,1,191.5,42.63Z"/><path class="cls-7" d="M191.5,42.63v.72H101.81v-.72a8.45,8.45,0,0,1,8.45-8.45h72.8A8.44,8.44,0,0,1,191.5,42.63Z"/><path class="cls-5" d="M115,40.28a1.3,1.3,0,1,1,0-1.84h0A1.32,1.32,0,0,1,115,40.28Z"/><path class="cls-5" d="M121,40.28a1.3,1.3,0,1,1,0-1.84h0A1.3,1.3,0,0,1,121,40.28Z"/><path class="cls-5" d="M127,40.28a1.3,1.3,0,1,1,0-1.84h0A1.32,1.32,0,0,1,127,40.28Z"/><rect class="cls-3" x="107.53" y="49.16" width="29.32" height="25.34"/><rect class="cls-5" x="141.37" y="49.16" width="33.74" height="1.78"/><rect class="cls-5" x="141.37" y="52.85" width="25.88" height="1.78"/><rect class="cls-5" x="141.37" y="56.52" width="38.54" height="1.8"/><rect class="cls-5" x="141.37" y="60.1" width="32.82" height="1.8"/><rect class="cls-4" x="173.93" y="121.08" width="23.56" height="16.74" rx="3.53"/><polyline class="cls-11" points="181.53 126.11 177 128.95 181.2 132.68"/><polyline class="cls-11" points="189.78 132.95 193.85 129.48 189.16 126.4"/><line class="cls-11" x1="183.73" y1="135.09" x2="187.08" y2="124.6"/></g><g id="freepik--Character--inject-11"><path class="cls-1" d="M148.88,226.37s-15.66,4.49-17.85,5.27c-2,.7-7.38,2.59-11.42,2a7.74,7.74,0,0,1-1.16-.25c-4.1-1.22-5.94-2.36-6.48-4.93s1.5-4.48,3.47-5.7,12.63-2.48,12.63-2.48l2.57.75h0Z"/><path class="cls-12" d="M119.61,233.64a7.74,7.74,0,0,1-1.16-.25c-4.1-1.22-5.94-2.36-6.48-4.93s1.5-4.48,3.47-5.7,12.63-2.48,12.63-2.48l2.57.75c-2.33,1.09-11,1.67-12.91,2.77s-2.81,3.14-1.69,5.94A10.76,10.76,0,0,0,119.61,233.64Z"/><path class="cls-11" d="M146.53,227s-11.77,3.05-16.43,5-13.57,2.8-16.75-1.22-.37-7.49,2.8-8.26,9.59-2,13.09-1.5"/><path class="cls-11" d="M119.84,233.43s-6-3.28-4-7.88c1.47-3.4,9.45-2.66,13.41-4.52"/><path class="cls-1" d="M196.59,234.37a5,5,0,0,1-2.35,4.1,9.29,9.29,0,0,1-4.81,1c-5.49-.07-15.82-4-15.82-4l-9.67-5.35,5-8,1.38-2.16,3.55.8s2.95,1.67,5.91,3,10.14,1.62,12.68,3.65S196.87,231.7,196.59,234.37Z"/><path class="cls-12" d="M196.59,234.37a5,5,0,0,1-2.35,4.1,7.22,7.22,0,0,0-.27-4.83c-1.08-2.43-4.59-4.57-9.22-4.92s-8.16-2.52-10-3.49c-1.45-.75-4.5-2.39-5.77-3.07l1.38-2.16,3.55.8s2.95,1.67,5.91,3,10.14,1.62,12.68,3.65S196.87,231.7,196.59,234.37Z"/><path class="cls-11" d="M166.09,231.62a61.11,61.11,0,0,0,22.63,7.73c1.76.21,3.81.24,5-1.08a3.65,3.65,0,0,0,.81-2.76c-.21-2.49-2.3-4.46-4.59-5.44s-4.81-1.22-7.25-1.76a29.2,29.2,0,0,1-7-2.55,21.59,21.59,0,0,0-5.37-2.43c-1.93-.42-4.23.08-5.26,1.77"/><path class="cls-11" d="M193.06,238.94a6.44,6.44,0,0,0,3.53-4.57,6.81,6.81,0,0,0-2.85-6.13,15.89,15.89,0,0,0-6.55-2.6,41.09,41.09,0,0,1-6.9-1.68c-3.39-1.33-6.73-4-10.27-3"/><path class="cls-1" d="M177,147.94l-16.36-6.23-.21-.08s.06-.43.11-1.08c.1-1.3.16-3.43-.46-4.15-.91-1.08-3.5-.17-6-1.33s-7.18.91-7.18.91-3.37-.62-4.86,1.81a13.06,13.06,0,0,0-.5,4.86l-.31.11c-2,.73-12.56,4.72-14.8,6.33-2.48,1.75-5.22,19.78-6.1,25.07s-2.45,10.06-1.65,11.88,12.19,10.6,18.74,12.87,29.81,1.62,29.81,1.62l1.06-.32c3.93-1.27,17.88-6.48,25.29-18.74C193.57,181.5,186.4,158,177,147.94Zm-44.21,30.32c-1.2.85-.54,4.15-.54,4.15l-2.05-1.8L135.35,168l2.19,9.72S134,177.41,132.79,178.26Zm41.14,8c-.57.29,1.62-5.79.58-7.16s-4.16-1.25-4.16-1.25l.26-1.66,1.85-9.51.62-.73s6.36,10.91,7.5,14.75C180.58,180.75,173.65,186.29,173.93,186.29Z"/><path class="cls-12" d="M146.11,108.5l-8.45,9s-1.16,1-.7,3.63,1.54,4.86,2.35,5a11.7,11.7,0,0,0,2,.17,34.93,34.93,0,0,0,3.09,5.46,70.69,70.69,0,0,1,.21,7.74s3,2.65,5.89,3,7.27-4,7.27-4l1.08-5.36s2.59-3.94,2.77-5,1.36-.78,1.94-1.3a9.92,9.92,0,0,0,2.16-5c.23-2.18.24-4.68-2.29-4-2.2-.59-.83-5.23-.83-5.23l-3.86-3.41Z"/><path class="cls-13" d="M160.64,141.71a9.71,9.71,0,0,1-.44,1c-1.4,2.63-7.47,7.63-7.47,7.63l-1.83-5.64-1,5.64c-2-.88-8.2-6.23-8.2-6.23s-.21-.51-.47-1.29l.31-.11a13,13,0,0,1,.5-4.86c1.48-2.43,4.86-1.81,4.86-1.81s4.66-2.07,7.18-.91,5.11.26,6,1.33.35,5.22.35,5.22Z"/><path class="cls-9" d="M177,147.94l-16.36-6.23-.21-.08s.06-.43.11-1.08l-.34,2.13L157.78,146a65.19,65.19,0,0,1,7.56,3.33,6.63,6.63,0,0,1,3.46,6.61l-3,25.79-1.23,14.64,3.73,3.88c3.93-1.27,17.88-6.48,25.29-18.74C193.57,181.5,186.4,158,177,147.94Zm-3.07,38.35c-.57.29,1.62-5.79.58-7.16s-4.16-1.25-4.16-1.25l.26-1.66,1.85-9.51.62-.73s6.36,10.91,7.5,14.75C180.58,180.75,173.65,186.29,173.93,186.29Z"/><path class="cls-9" d="M138.62,179.13l-2.54-8.51s-4.56-15.56-7.69-19.39l.82,10.94s-2.7,13.07-5.17,17-3,4.86,0,4.86,10.37,5.85,10.37,5.85l-.57-4.86Zm-6.41,3.28-2-1.8L135.31,168l2.19,9.72s-3.52-.27-4.72.58S132.21,182.41,132.21,182.41Z"/><path class="cls-11" d="M144.36,131.74s.47,4.59,0,6.69"/><path class="cls-11" d="M158.2,137.81a19.63,19.63,0,0,1,.51-4.38"/><path class="cls-11" d="M159.43,111.92s2.77,3.48,2.63,6.12-.35,5.76-.28,8.82-4.91,9.46-7.47,10-4.77.71-6.41-.93a61.23,61.23,0,0,1-5.4-6.83c-2.13-2.91-1.62-9.31-1.62-9.31"/><path class="cls-11" d="M152.74,122.25a14.86,14.86,0,0,0-.22,2.9,3.27,3.27,0,0,0,.72,2.27c.3.32.75.57.81,1a1.11,1.11,0,0,1-.58,1,8.45,8.45,0,0,0-1,.59"/><path class="cls-11" d="M148.35,130.3s.32,2.07,3.09,2.5"/><path class="cls-5" d="M148.63,123.83c0,.6-.26,1.08-.57,1.08s-.58-.48-.58-1.08.26-1.08.58-1.08S148.63,123.24,148.63,123.83Z"/><path class="cls-5" d="M156.9,124.09c0,.6-.26,1.08-.57,1.08s-.58-.49-.58-1.08.26-1.08.58-1.08S156.9,123.49,156.9,124.09Z"/><path class="cls-14" d="M155.23,121.47s2.71-2.7,5,.31"/><path class="cls-14" d="M149.55,121.52s-1.71-1.91-4.4,0"/><path class="cls-5" d="M144.57,134.29s1.64,4.54,5.32,5.83,8.56-5.4,8.56-5.4l-.25-.87s-3.2,4.16-6.76,3.45-7.08-5.53-7.08-5.53Z"/><path class="cls-11" d="M141.27,126.11s-2.2.77-2.78-.93-2.58-6.21-.83-7.71,3.15,2,3.15,2"/><path class="cls-11" d="M161.77,127s2,.41,2.62-1.3,2.58-6.2.83-7.7-3.15,2-3.15,2"/><path class="cls-5" d="M140.81,123.83a3.06,3.06,0,0,0,1.93-1.13,5,5,0,0,0,.54-1.73,20.27,20.27,0,0,0,.3-3.48,4.72,4.72,0,0,1,.12-1.35,3.44,3.44,0,0,1,.74-1.21c.76-.89,1.68-1.65,2.41-2.58a4.32,4.32,0,0,0,1.08-3.24,14.83,14.83,0,0,0,12.14,3.14c3.86-.76,7.56-4.14,7.11-8.4a3.44,3.44,0,0,0-2.7-3c-1.91-.47-3.62.54-5.35,1.19-3.14,1.19-6.23-.85-9.41-1.19-2.7-.3-6.07,0-7.48,2.75,0,0-4.86.57-7,4.59s1.92,9.58,1.92,9.58,1.63-2,3.75,2Z"/><path class="cls-5" d="M159.76,110.89s-1.26,6.59,2,9.79a6.86,6.86,0,0,1,1.45-2.47,7.64,7.64,0,0,0-.58-7.32C160.23,107.06,159.76,110.89,159.76,110.89Z"/><path class="cls-15" d="M165.78,103.4a6.19,6.19,0,0,1-3.78,3.92c-4.58,1.87-9-.2-13.62-.6-3.74-.34-7.88,3-8.14,6.89"/><path class="cls-15" d="M137.41,112.6a8,8,0,0,1,4.87-7.07"/><path class="cls-11" d="M143.3,137.81a21,21,0,0,0,7.14,4.86s5.48-1.59,8.27-5.4"/><circle class="cls-16" cx="146.88" cy="123.82" r="4.85"/><circle class="cls-17" cx="157.71" cy="123.84" r="4.85"/><path class="cls-11" d="M144.36,136a3.77,3.77,0,0,0-2.34,1.81c-.86,1.51-.34,6.27-.34,6.27s4.44,4.39,8.21,6.24l1.11-6.26,1.73,6.26s5.85-4.13,7.47-7.63c0,0,.54-4.08,0-5.4a1.89,1.89,0,0,0-1.75-1.28"/><path class="cls-11" d="M137.41,177.88s-1.73-11.61-4-16.35"/><path class="cls-11" d="M128.39,151.23a47.81,47.81,0,0,1,3.59,6"/><path class="cls-11" d="M173.93,159.9a32.32,32.32,0,0,1,1.91-5.67"/><path class="cls-11" d="M170.35,177.88s1.25-8,2.74-14.52"/><path class="cls-11" d="M172.46,166.7a9.18,9.18,0,0,1,4.83-3.3"/><path class="cls-11" d="M160.44,141.63s10.06,4,16.56,6.31c0,0,8,7.52,16.56,33.56,0,0-7.85,13.21-22.79,17.44"/><path class="cls-11" d="M173.36,186.76l7.22-6s3.82-2.9,7.79-.92"/><path class="cls-11" d="M173.09,166s6,8.82,7.49,14.77"/><path class="cls-11" d="M132.29,182.75l-2.11-2a10,10,0,0,0-6.68,1.83"/><path class="cls-11" d="M130.18,180.75s2.63-8.65,5.21-13.07"/><path class="cls-11" d="M141.53,142.69s-14.48,5.44-15.9,7-6.82,32-7,35.45c-.13,3.12,11.15,10.1,16.74,13"/><path class="cls-5" d="M152.36,153a1,1,0,1,1-1-1h0a1,1,0,0,1,1,.95Z"/><path class="cls-5" d="M169.12,203.85h-33a.77.77,0,0,1-.78-.77h0a.77.77,0,0,1,.78-.77h33a.77.77,0,0,1,.77.77h0A.77.77,0,0,1,169.12,203.85Z"/><path class="cls-4" d="M170.27,201.27l4.41-20.74a2.19,2.19,0,0,0-1.69-2.61,1.83,1.83,0,0,0-.47,0H134a2.19,2.19,0,0,0-2.2,2.2,2,2,0,0,0,0,.43l4,20.05a2.2,2.2,0,0,0,2.11,1.78l30.14.69A2.21,2.21,0,0,0,170.27,201.27Z"/><path class="cls-5" d="M156.22,189.84a3.08,3.08,0,1,1-3.08-3.08,3.07,3.07,0,0,1,3.08,3.08Z"/><line class="cls-11" x1="162.26" y1="179.85" x2="166.84" y2="179.85"/><line class="cls-11" x1="140.41" y1="179.85" x2="157.78" y2="179.85"/><path class="cls-5" d="M170.35,223.29l-3.51,9.22s-9-2.26-20.43-4.61c-12-2.46-24.52-5.64-31-17a6.47,6.47,0,0,1-.94-4.59c.93-3.93,6.06-5,9.43-5.4a62.2,62.2,0,0,1,6.39-.36c1.08,0,4.68-.58,5.55.06A25.62,25.62,0,0,0,140,203c1.92.81,29.91-.73,29.91-.73a10.06,10.06,0,0,0,.88-3.37c4.4-2.23,14.58-4.12,18.9-3.29,6.77,1.32,10.72,5.26,10,9.4S183.94,220.28,170.35,223.29Z"/><path class="cls-18" d="M170.35,223.29a58.58,58.58,0,0,1-15.48-6.95c-7-4.7-12.39-10.16-22.08-9"/><path class="cls-18" d="M153.28,215.23c4.4-1.27,7.62-4.11,11.15-6.84a74.84,74.84,0,0,1,11.93-7.84"/><line class="cls-11" x1="151.73" y1="124.6" x2="153.02" y2="124.6"/></g></svg>